<svg xmlns="http://www.w3.org/2000/svg" viewBox="0 0 512 512" width="16" height="16"><path fill="#127274" d="M241.9 445.6c-10.9 3.5-22.2 5.7-33.5 7.9-27 5.2-54.1 7.8-81.5 5.6-1.8 3.5-2.7 7.4-4.7 10.8-1.8 3.1-3.7 6.1-5.7 9 14.2-.2 28.4-1 42.7-2 15.6-1 31-2 46.4-4.6 12-2 27.7-2.8 37.3-11.1 5.8-5 9.2-13 11.2-20.8-3.8 2.2-8 3.9-12.2 5.2zm-125.4 9.9c-5.4-16.3-8.6-33.5-11-50.6-3.7 9.1-4.4 18.1-3.1 27.9 1.2 8.8 2.9 17.5 3.7 26.3.4 4.6.9 9.5 2.6 13.8 2.1-2.9 4.1-6 5.4-9.1 1-2.5 1.8-5 2.9-7.5-.3-.2-.4-.5-.5-.8zm314.9-78c-10.7 7.1-21.7 13.2-33.8 17.7-20 7.4-43.3 18.7-65.1 13.5-8.5-2-18.3-6.3-19.4-16.1-1-8.4 3.5-16.6 7.4-23.7 4.2-7.6 8.3-14.1 8.3-23 0-8.2-1.4-17.3-8.5-22.4-6.4-4.6-15.3-5-22.9-4.7-7.8.2-15.6 1.2-23.1 3.1-14.7 3.6-31.4 9.8-41 22.2-2.9 3.8-4.6 7.9-5.2 12 .2-.2.4-.3.6-.5 8.1-5.8 18.1-8.3 27.7-10.3 4.9-1 9.7-2.2 14.5-3.5 5.1-1.3 11-2.7 16.2-1.1 11.4 3.5 17.8 14.2 17.2 26-.5 10.7-4.8 20.9-4.7 31.7.1 11.2 4.1 21.2 14.3 26.9 12.3 6.9 25.4 6.5 38.6 2.5 13.2-4 25.6-9.8 38.2-15.1 10.9-4.6 24-7.8 33.5-15.3.4-.6.9-1 1.5-1.4 5.1-7.7 10.8-15.5 15.2-23.8-3.5 1.9-7 3.6-9.5 5.3zm-292.1-77.1c-5.8-.8-14.2-2.3-19.5 1-4.1 2.6-7 6.4-10.5 9.7-5 4.7-12.6 8.6-19.7 7.2-13.2-2.7-18.9-18.3-22.1-29.8-3.5-12.8-5.2-26-6.7-39.2-1.9-17-1.9-35.3 1.3-52.6-.2.3-.5.6-.7.8-4.2 4.7-8.3 9.7-10.9 15.4-5.6 12.1-2.7 25.8-2.1 38.6.5 13.1 3.1 25.9 6.1 38.6 2.4 10.5 5.3 21.5 11.5 30.5 6 8.7 16.9 20.2 28.7 17.7 10.6-2.2 17.3-12.2 25.7-18.2 13.4-9.6 29.6-10.5 43.1-3.4-5.4-8.5-14.3-15-24.2-16.3zm57.6-171.1c-3.3-2.5-7.2-4.1-10.9-5.6-8.4-3.4-15.8-7.3-21.3-15 0-.1-.1-.1-.1-.2-.3 2.2-.6 4.4-.8 6.6-.3 2.4-1.9 6.8-.8 9 .8 1.7 6 2.8 7.6 3.4 7 2.5 14.8 5.7 17.9 13.1.8 2 1.6 4.4 1.8 6.8.1-.1.3-.1.4-.2.9-.4 1.9-.7 2.8-1 1.5-2.3 3.3-4 5.6-5.5 1.1-4.3 1.9-8.2-2.2-11.4zm255.2 105.1c-5.2 1.3-10.4 1.3-15.8 1.5-4.7.2-9.8.4-13.4 3.9-4.7 4.6-6 11.4-6.2 18 1.8-1.7 4-3 6.4-4 4.1-1.6 8.2-1.8 12.6-1.8 3.8 0 6.2 0 8.6-3.2 2.1-2.9 3.3-6.2 5.1-9.2 1.1-1.8 2.1-3.5 3.1-5.3-.1 0-.2 0-.4.1z"/><path fill="#3AB37C" d="M458.8 183.5c-4.2-8.5-10.2-18.9-18.7-23.8-4-2.4-8.7-3.8-13-1-4.1 2.7-6.9 6.3-8.2 11-2.5 9-2.9 20.1-9.9 27.1-7.4 7.4-17.4 9.9-26.6 4.2-8-4.9-14.6-14.3-18-22.9-5.2-13.3-7.4-27.3-10.1-41.2-2.4-12.2-5.2-24.3-8.3-36.4-9.6 6-19.6 11.6-29.4 17.3-9.2 5.3-18.7 11.6-29.4 12.9-9.3 1.2-22.5-.7-28.1-9.4-4.3-6.7-2.9-14.6.4-21.4 4.1-8.6 14.3-19.1 10.5-29.3-3.9-10.5-15.3-17.1-25.8-19.3-19.5-4-44.3-.3-60.1 12.4-7 5.6-13.6 13.5-15 22.6-1.4 9.2 3.5 19.5 11.8 24 7.8 4.3 18.1 6 24.4 12.8 3.7 4 5.9 8.7 5.1 14.3-.4 2.8-.8 6.3-2 8.8-.4.8-1 1.3-1.7 1.8 0 1.4-.6 2.8-1.9 3.9-2.8 2.4-7.1 3.7-10.5 5-4.2 1.6-8.4 3.2-12.7 4.4-14 4.2-27.5 10-41.5 14-13.3 3.8-26.9 8.1-40.7 10.1-8.1 1.2-16.3 1.5-24.5 1.6-5.2 17.8-5.5 37.6-4.2 55.9.7 10.1 2 20.4 3.9 30.4 1.9 10.3 4.3 22.3 10.9 30.7 2.2 2.9 4.9 4.7 7.9 4.4 5.7-.6 9.6-5.1 13.4-9 3.8-3.9 8-7.5 13.5-8.9 5.9-1.5 12.2-1.1 18.1-.4 11.6 1.4 21.7 6.6 29.4 15.4 14.5 16.6 15.8 41.1-1.7 55.9-4.7 4-10.1 6.9-15.5 9.8-5.2 2.7-11.1 5.2-17.1 5.5-5.2.3-12.3-1.7-16.7 1.8l-.4.4c-.7 2.3-1.5 4.6-2.4 6.8 0 .4 0 .8-.1 1.2-.1 9.2 2.1 18.2 3.5 27.3 1.8 11.8 4.1 23.3 7.6 34.7 25.9 2.5 52 .3 77.5-4.5 10.8-2 21.7-4.1 32.3-7.2 6.4-1.9 14.1-4.1 19-8.8 6.2-6 6.3-15.1-1-20.4-8.8-6.5-18.1-11-25.1-19.8-11.2-14.2-14.6-33.3-3.9-48.7 9.2-13.1 25-20.9 40-25.3 14.9-4.5 31.4-7.1 46.9-4.7 9 1.4 18 5.8 22.7 14 4.7 8.2 5.7 17.4 5 26.7-.7 8.8-5 15.8-9.1 23.4-2.5 4.5-9.6 15.1-5.5 20.3 2.7 3.5 8.8 4.8 12.9 5.4 5.3.7 10.7.5 15.9-.4 11.5-1.9 22.5-6 33.3-10.1 11.5-4.4 22.6-8.8 33-15.4 4.6-2.9 9.1-5.7 13.7-8.4 1.3-.7 3.8-1.9 5.7-3.3-.1-.3-.1-.6-.2-.8 5.9-3.7 11.8-8.8 9.2-14.6-2.1-7-10.3-16.2-12.7-19-12.4-14.6-24.4-31.2-27-50.7-2-14.6-3.5-33.3 8.3-44.2 6.4-5.9 14.8-6.3 23-6.5 9-.2 15.9-2.2 20.6-10.6 6-10.3 4.3-21.7-.7-31.8z"/><path d="M467.2 177.8c-7.1-13.5-19.9-33.2-37.8-30.6-8.6 1.3-15.6 8.2-18.9 16-3.3 7.8-3.1 16.8-7.1 24.3-1.7 3.2-5.4 6-9 6.5-3.8.6-7.2-1.9-9.9-4.3-7.3-6.5-11.1-16-13.8-25.1-3.6-12.2-5.3-25-7.9-37.4-2.6-12.7-5.7-25.2-9-37.7-1.3-5-7.6-3.9-9.3-.2-11.7 7.6-24.1 14.4-36.1 21.4-10.9 6.3-22.8 13.3-35.6 8.2-9.8-3.8-5.3-12.8-1.4-19.7 5.7-10 11.5-19 8.7-30.9-2.5-10.8-13.3-19.2-22.9-23.6-9.9-4.5-21.1-5.5-31.8-5-20.9 1-41.6 7.7-55.7 23.6-3.5 4-6.3 8.5-8.2 13.2-1 .6-1.8 1.7-2.2 3.2-2.1 9.9-3.7 19.8-5 29.9-.7 5.6-3 13.1-.5 18.5 2.9 6.2 10.4 7.6 16.2 9.9 3.5 1.3 6.5 2.9 8.9 5.8.6.7.8 1.9 1.1 2.8.2.5.3 1.1.3 1.6 0 .2.1.4.1.6-.6.7-1 1.6-1.2 2.5-.3.1-.7.2-1 .3-13.5 3.9-26.3 9.6-39.8 13.5-13.1 3.7-26.4 7.9-39.9 10.1-8.1 1.3-16.5 1.5-24.7 1.6-2.1-1.5-5-1.6-6.4.8-.6.4-1 1-1.3 1.6-3.4 2-6.1 4.9-8.8 7.9-4.2 4.7-8.4 9.3-11.9 14.6-3.4 5.2-5.9 10.6-7.3 16.6-1.7 7-.9 14.9-.4 21.9 1 14.3 2 28 4.9 42.1 2.4 11.6 4.8 23.4 9.7 34.3 4.8 10.7 12.7 20.6 22.7 26.9 10.8 6.8 22.2 6.7 33 .2 10-6 16.6-16.1 27.8-20.2 10.7-3.8 21.8-.2 30 7.1 1.1 1 2.1 2.1 3.1 3.1l.1.1c0 2.1-.1 4.2-.5 6.2-1.6 7.8-7.8 13.5-14.2 17.6-4.4 2.8-9.1 5.3-13.9 7.2-5.1 2-10.1 1.9-15.5 1.7-7.9-.3-15.4 2.6-18.8 10.1-1 2.3-1.6 4.7-1.9 7.2-2.8 6.8-6.5 13.4-9.1 20.3-3.9 10.1-3.8 20.7-2.4 31.2 1.2 9.1 2.8 18 3.7 27.1.8 7.9 2.4 16.4 7.7 22.6 1 1.2 2.7 2.1 4.3 2.2.9 1.1 2.3 1.9 4 1.9 34-.1 68.4-2.3 102-7.8 13.1-2.1 27.3-4.5 37.2-14 8.9-8.5 13.2-22.8 14.6-34.7.1-1 0-1.9-.3-2.6 3.8-6.5 4.1-14.9.8-21.7-4.5-9.3-15.6-12.9-23.2-19-6.4-5.2-11.6-12.2-14-19.7.4-.3.7-.7 1.1-1.2 5.4-8 15.9-10.4 24.7-12.5 4.4-1.1 8.8-1.9 13.2-2.9 5.7-1.3 10.9-3.6 16.9-2.3 5.8 1.2 8.4 7.7 8.9 12.9.6 5.6-.9 11.2-2.2 16.6-2.4 10.3-3.4 20.9-.9 31.2 2.7 11.4 11.4 19.5 21.4 24.7 11.7 6 24.8 5.7 37.3 3 13.2-2.9 25.9-8.6 38.2-14.1 11.8-5.2 24.3-9.2 35.8-15.2 2.1-1.1 4-2.4 5.8-3.8 1.3-.4 2.5-1.2 3.2-2.3.2-.2.3-.5.5-.7.8-.7 1.3-1.5 1.5-2.2 10.2-15.4 22.2-31.2 23.8-50.1.1-1-.1-1.8-.4-2.6-.3-7.5-4.7-15.3-9.5-20.8-8-9.2-15.9-18.4-22.1-29-4.4-7.5-6.9-15.2-8.2-23.4.6-.6 1.1-1.5 1.4-2.5 2-8.4 9.4-10.1 17-10.1 8.1 0 13.4-2.9 17.7-9.8 3.9-6.2 7.3-12.9 10.7-19.4 3.8-7.2 7.2-14.9 8.3-23 .1-.6.1-1.1 0-1.6 1.6-10.5-1.6-21.6-6.4-30.7zm-296.5-50.3c-1.6-.6-6.8-1.6-7.6-3.4-1.1-2.3.5-6.7.8-9 .2-2.2.5-4.4.8-6.6 0 .1.1.1.1.2 5.4 7.7 12.8 11.6 21.3 15 3.8 1.5 7.7 3.1 10.9 5.6 4.1 3.2 3.3 7.1 2.3 11.4-2.2 1.4-4 3.2-5.6 5.5-1 .4-1.9.7-2.8 1-.1.1-.3.1-.4.2-.2-2.4-1-4.8-1.8-6.8-3.3-7.4-11-10.6-18-13.1zm-50.3 192.7c-8.4 6-15.1 16-25.7 18.2-11.8 2.4-22.7-9-28.7-17.7-6.2-9-9.1-19.9-11.5-30.5-2.9-12.7-5.5-25.6-6.1-38.6-.5-12.9-3.5-26.5 2.1-38.6 2.7-5.8 6.7-10.7 10.9-15.4.2-.3.5-.5.7-.8-3.2 17.3-3.2 35.6-1.3 52.6 1.5 13.2 3.2 26.4 6.7 39.2 3.1 11.5 8.8 27.1 22.1 29.8 7.1 1.4 14.6-2.4 19.7-7.2 3.5-3.3 6.4-7.1 10.5-9.7 5.3-3.3 13.7-1.8 19.5-1 9.9 1.3 18.8 7.7 24.2 16.3-13.5-7.1-29.7-6.2-43.1 3.4zM108.6 473c-1.6-4.3-2.1-9.2-2.6-13.8-.8-8.9-2.5-17.5-3.7-26.3-1.3-9.8-.6-18.8 3.1-27.9 2.5 17.1 5.7 34.2 11 50.6.1.3.2.6.4.9-1.1 2.4-2 5-2.9 7.5-1.2 3-3.2 6.1-5.3 9zM243 461.2c-9.7 8.4-25.3 9.2-37.3 11.1-15.4 2.5-30.8 3.6-46.4 4.6-14.2.9-28.4 1.8-42.7 2 2-2.9 3.9-5.9 5.7-9 2-3.4 2.9-7.3 4.7-10.8 27.4 2.2 54.5-.4 81.5-5.6 11.2-2.2 22.6-4.4 33.5-7.9 4.2-1.3 8.4-3 12.3-5.2-2.1 7.9-5.5 15.8-11.3 20.8zm182.5-65.1c-.6.3-1.1.8-1.5 1.4-9.4 7.5-22.6 10.6-33.5 15.3-12.6 5.4-25 11.1-38.2 15.1-13.2 4-26.3 4.4-38.6-2.5-10.2-5.7-14.2-15.7-14.3-26.9-.1-10.8 4.2-21 4.7-31.7.6-11.8-5.8-22.5-17.2-26-5.2-1.6-11.1-.2-16.2 1.1-4.8 1.3-9.6 2.4-14.5 3.5-9.6 2.1-19.6 4.5-27.7 10.3-.2.2-.4.3-.6.5.6-4.1 2.3-8.2 5.2-12 9.6-12.5 26.2-18.6 41-22.2 7.5-1.9 15.4-2.8 23.1-3.1 7.6-.2 16.5.1 22.9 4.7 7.1 5.1 8.5 14.3 8.5 22.4 0 8.9-4.2 15.4-8.3 23-3.9 7.1-8.4 15.3-7.4 23.7 1.1 9.8 11 14.1 19.4 16.1 21.9 5.2 45.2-6.1 65.1-13.5 12.1-4.5 23.1-10.7 33.8-17.7 2.6-1.7 6.1-3.3 9.4-5.3-4.3 8.2-9.9 16-15.1 23.8zm24-156.5c-1.8 3-3 6.4-5.1 9.2-2.4 3.2-4.8 3.2-8.6 3.2-4.4 0-8.5.2-12.6 1.8-2.4 1-4.5 2.3-6.4 4 .1-6.7 1.5-13.5 6.2-18 3.6-3.5 8.7-3.7 13.4-3.9 5.4-.2 10.5-.2 15.8-1.5.2 0 .3-.1.5-.1-1.1 1.7-2.2 3.5-3.2 5.3zm10.3-24.5c-4.7 8.4-11.6 10.4-20.6 10.6-8.2.2-16.6.6-23 6.5-11.8 11-10.3 29.7-8.3 44.2 2.6 19.5 14.5 36.1 27 50.7 2.4 2.8 10.6 12 12.7 19 2.6 5.8-3.3 10.9-9.2 14.6 0 .3.1.6.2.8-1.9 1.4-4.5 2.6-5.7 3.3-4.7 2.7-9.2 5.5-13.7 8.4-10.5 6.6-21.5 11-33 15.4-10.8 4.1-21.8 8.3-33.3 10.1-5.3.9-10.6 1.1-15.9.4-4.1-.6-10.2-1.9-12.9-5.4-4.1-5.3 3-15.8 5.5-20.3 4.1-7.6 8.5-14.6 9.1-23.4.7-9.3-.3-18.5-5-26.7s-13.7-12.5-22.7-14c-15.5-2.5-32 .2-46.9 4.7-14.9 4.5-30.8 12.2-40 25.3-10.8 15.4-7.4 34.4 3.9 48.7 7 8.8 16.2 13.4 25.1 19.8 7.3 5.3 7.2 14.4 1 20.4-5 4.7-12.6 6.9-19 8.8-10.5 3.1-21.5 5.2-32.3 7.2-25.5 4.8-51.6 7-77.5 4.5-3.5-11.4-5.7-22.9-7.6-34.7-1.4-9.1-3.7-18-3.5-27.3 0-.4 0-.8.1-1.2.9-2.2 1.7-4.5 2.4-6.8l.4-.4c4.4-3.5 11.5-1.5 16.7-1.8 6-.3 11.8-2.8 17.1-5.5 5.4-2.8 10.8-5.8 15.5-9.8 17.5-14.8 16.2-39.4 1.7-55.9-7.7-8.8-17.8-14.1-29.4-15.4-6-.7-12.3-1.1-18.1.4-5.5 1.4-9.7 4.9-13.5 8.9-3.8 3.9-7.6 8.4-13.4 9-3 .3-5.6-1.5-7.9-4.4-6.6-8.4-9-20.5-10.9-30.7-1.9-10-3.2-20.2-3.9-30.4-1.3-18.3-1-38.1 4.2-55.9 8.2-.1 16.4-.4 24.5-1.6 13.7-2 27.3-6.4 40.7-10.1 14-4 27.5-9.8 41.5-14 4.3-1.3 8.5-2.8 12.7-4.4 3.4-1.3 7.7-2.6 10.5-5 1.3-1.1 1.9-2.5 1.9-3.9.7-.5 1.3-1 1.7-1.8 1.2-2.5 1.6-6.1 2-8.8.9-5.6-1.4-10.3-5.1-14.3-6.2-6.8-16.5-8.5-24.4-12.8-8.3-4.5-13.3-14.8-11.8-24 1.4-9.1 8-17 15-22.6 15.8-12.7 40.6-16.4 60.1-12.4 10.5 2.2 21.9 8.8 25.8 19.3 3.8 10.2-6.4 20.7-10.5 29.3-3.2 6.9-4.7 14.7-.4 21.4 5.6 8.6 18.8 10.5 28.1 9.4 10.8-1.4 20.2-7.6 29.4-12.9 9.8-5.6 19.8-11.2 29.4-17.3 3.1 12.1 5.9 24.2 8.3 36.4 2.8 13.9 4.9 27.9 10.1 41.2 3.4 8.7 10 18 18 22.9 9.2 5.7 19.2 3.2 26.6-4.2 7-7 7.4-18.1 9.9-27.1 1.3-4.8 4.1-8.3 8.2-11 4.3-2.8 8.9-1.3 13 1 8.4 5 14.5 15.3 18.7 23.8 4.7 10.3 6.4 21.7.7 31.8z"/></svg>